<?xml version="1.0" standalone="no"?>
<!DOCTYPE svg PUBLIC "-//W3C//DTD SVG 20010904//EN"
 "http://www.w3.org/TR/2001/REC-SVG-20010904/DTD/svg10.dtd">
<svg version="1.0" xmlns="http://www.w3.org/2000/svg"
 width="94.000000pt" height="189.000000pt" viewBox="0 0 94.000000 189.000000"
 preserveAspectRatio="xMidYMid meet">

<g transform="translate(0.000000,189.000000) scale(0.100000,-0.100000)"
fill="#722F37" stroke="none">
<path d="M156 1738 c-18 -64 -66 -241 -97 -363 -17 -64 -23 -118 -24 -190 0
-88 4 -107 27 -158 34 -72 112 -155 204 -218 90 -60 130 -108 144 -171 5 -27
10 -116 10 -199 0 -170 -9 -207 -62 -239 -30 -18 -55 -27 -180 -61 -87 -23
-31 -29 282 -29 291 0 344 4 312 24 -5 3 -40 12 -79 20 -87 18 -144 46 -169
83 -17 25 -19 47 -19 218 1 174 3 193 22 230 26 48 60 81 134 127 78 50 122
91 162 151 95 144 90 245 -30 682 l-39 140 -291 3 -291 2 -16 -52z m631 -133
c76 -283 96 -382 89 -455 -11 -126 -84 -230 -230 -330 -146 -99 -156 -122
-156 -374 0 -162 2 -184 20 -213 27 -45 62 -65 160 -90 l85 -21 -290 0 -290 0
72 18 c85 22 119 39 153 75 31 33 38 99 33 289 -5 196 -21 227 -169 326 -168
114 -239 255 -213 423 9 57 96 409 120 485 l11 32 281 -2 281 -3 43 -160z"/>
<path d="M442 1488 c-7 -7 -12 -17 -12 -22 -1 -11 -84 -66 -101 -66 -5 0 -9
-5 -9 -11 0 -12 -2 -13 66 23 l52 27 -35 -68 c-30 -58 -35 -78 -35 -132 l1
-64 -34 40 c-19 22 -42 61 -52 87 -9 26 -20 45 -24 42 -12 -7 27 -91 61 -135
17 -20 51 -51 75 -67 41 -27 43 -30 22 -36 -12 -3 -48 -6 -79 -6 -47 0 -59 4
-68 20 -22 41 -89 14 -75 -30 5 -14 14 -20 33 -18 30 2 132 -46 132 -62 0 -6
5 -10 10 -10 26 0 4 21 -53 54 -43 24 -71 33 -86 29 -20 -5 -22 -2 -19 18 3
27 43 35 43 9 0 -40 160 -31 241 14 26 15 44 20 44 13 -1 -21 -41 -101 -62
-124 -14 -15 -18 -28 -13 -43 6 -18 9 -19 18 -7 16 19 85 57 103 57 8 0 14 7
14 15 0 20 -2 19 -52 -13 -67 -44 -85 -48 -55 -12 33 39 67 130 67 180 0 22 5
40 10 40 21 0 8 16 -41 50 l-52 35 47 9 c29 5 67 5 97 -1 27 -6 49 -6 49 -2 0
13 -68 22 -131 16 -32 -3 -62 -1 -65 4 -8 13 -26 0 -21 -15 3 -6 -13 -21 -34
-33 l-39 -21 6 26 c9 35 42 102 62 125 8 9 12 17 7 17 -4 0 -1 8 6 17 12 15
12 16 -3 10 -12 -4 -15 -2 -11 9 8 21 47 13 51 -10 3 -11 -4 -26 -14 -33 -10
-7 -13 -13 -8 -13 17 0 34 23 34 46 0 32 -44 46 -68 22z m73 -223 c16 -15 25
-36 25 -55 0 -36 -38 -80 -69 -80 -50 0 -91 41 -91 91 0 31 44 69 80 69 19 0
40 -9 55 -25z"/>
<path d="M536 1421 c-9 -14 104 -75 139 -75 23 -1 31 -6 33 -23 3 -20 -1 -23
-30 -23 -27 -1 -30 -2 -15 -11 23 -14 54 -3 62 22 9 27 -12 50 -44 47 -27 -2
-121 47 -121 63 0 12 -17 12 -24 0z"/>
<path d="M222 1378 c-15 -15 -16 -40 -1 -55 6 -6 12 -41 13 -77 1 -36 6 -66
12 -66 16 1 4 143 -14 156 -14 10 -14 14 -3 28 18 21 37 20 51 -1 10 -16 10
-16 8 2 -4 24 -47 32 -66 13z"/>
<path d="M667 1243 c-2 -5 0 -39 4 -78 15 -122 15 -120 -1 -120 -8 0 -20 11
-28 25 l-13 25 3 -30 c2 -24 8 -31 29 -33 36 -4 56 21 40 51 -6 12 -13 55 -14
95 -2 65 -8 86 -20 65z"/>
<path d="M588 1224 c-4 -3 4 -21 17 -40 13 -19 29 -51 35 -69 6 -19 16 -35 21
-35 13 0 12 5 -21 68 -37 72 -45 84 -52 76z"/>
<path d="M409 984 c-14 -17 -5 -40 24 -58 12 -8 19 -7 27 2 6 6 7 10 4 7 -11
-7 -44 15 -44 30 0 8 8 19 18 24 15 9 15 10 1 11 -9 0 -22 -7 -30 -16z"/>
</g>
</svg>
